<svg width="26" height="23" viewBox="0 0 26 23" fill="none" xmlns="http://www.w3.org/2000/svg">
<g id="share-line-icon 1">
<path id="Vector" d="M4.70192 6.79646C6.00105 6.79646 7.17488 7.26844 8.02558 8.0295C8.21682 8.20059 8.39488 8.38938 8.55315 8.58997L15.972 5.82891C15.7346 5.32743 15.6093 4.77876 15.6093 4.20649C15.6093 3.04425 16.1369 1.9941 16.9876 1.23304C17.8383 0.471976 19.0121 0 20.3113 0C21.6104 0 22.7842 0.471976 23.6349 1.23304C24.4856 1.9941 25.0132 3.04425 25.0132 4.20649C25.0132 5.36873 24.4856 6.41888 23.6349 7.17994C22.7842 7.941 21.6104 8.41298 20.3113 8.41298C19.0121 8.41298 17.8383 7.941 16.9876 7.17994C16.8425 7.05015 16.704 6.90855 16.5787 6.76106L9.11368 9.53982C9.30493 9.9941 9.41044 10.4897 9.41044 11.0029C9.41044 11.3215 9.37087 11.6283 9.29833 11.9292L16.7568 15.056C16.8293 14.9794 16.9085 14.9027 16.9942 14.826C17.8449 14.0649 19.0187 13.5929 20.3179 13.5929C21.617 13.5929 22.7908 14.0649 23.6415 14.826C24.4922 15.587 25.0198 16.6372 25.0198 17.7994C25.0198 18.9617 24.4922 20.0118 23.6415 20.7729C22.7908 21.5339 21.617 22.0059 20.3179 22.0059C19.0187 22.0059 17.8449 21.5339 16.9942 20.7729C16.1435 20.0118 15.6159 18.9617 15.6159 17.7994C15.6159 17.1386 15.7874 16.5074 16.0973 15.9528L8.89606 12.9322C8.67185 13.3215 8.38169 13.6755 8.03877 13.9764C7.18807 14.7375 6.01424 15.2094 4.71511 15.2094C3.41598 15.2094 2.24215 14.7375 1.39145 13.9764C0.540749 13.2153 0.0131836 12.1652 0.0131836 11.0029C0.0131836 9.84071 0.540749 8.79056 1.39145 8.0295C2.24215 7.26844 3.41598 6.79646 4.71511 6.79646H4.70192ZM22.7842 1.9882C22.1511 1.42183 21.2741 1.06785 20.3047 1.06785C19.3353 1.06785 18.4582 1.42183 17.8251 1.9882C17.192 2.55457 16.7964 3.33923 16.7964 4.20649C16.7964 5.07375 17.192 5.85841 17.8251 6.42478C18.4582 6.99115 19.3353 7.34513 20.3047 7.34513C21.2741 7.34513 22.1511 6.99115 22.7842 6.42478C23.4173 5.85841 23.813 5.07375 23.813 4.20649C23.813 3.33923 23.4173 2.55457 22.7842 1.9882ZM22.7842 15.5752C22.1511 15.0088 21.2741 14.6549 20.3047 14.6549C19.3353 14.6549 18.4582 15.0088 17.8251 15.5752C17.192 16.1416 16.7964 16.9263 16.7964 17.7935C16.7964 18.6608 17.192 19.4454 17.8251 20.0118C18.4582 20.5782 19.3353 20.9322 20.3047 20.9322C21.2741 20.9322 22.1511 20.5782 22.7842 20.0118C23.4173 19.4454 23.813 18.6608 23.813 17.7935C23.813 16.9263 23.4173 16.1416 22.7842 15.5752ZM7.18148 8.77876C6.5484 8.21239 5.67132 7.85841 4.70192 7.85841C3.73252 7.85841 2.85544 8.21239 2.22236 8.77876C1.58928 9.34513 1.19361 10.1298 1.19361 10.9971C1.19361 11.8643 1.58928 12.649 2.22236 13.2153C2.85544 13.7817 3.73252 14.1357 4.70192 14.1357C5.67132 14.1357 6.5484 13.7817 7.18148 13.2153C7.81455 12.649 8.21023 11.8643 8.21023 10.9971C8.21023 10.1298 7.81455 9.34513 7.18148 8.77876Z" fill="black"/>
</g>
</svg>
